<svg version="1.0" xmlns="http://www.w3.org/2000/svg" width="950.667" height="950.667" viewBox="0 0 713 713"><path d="M398.1 54.7c-3.1 10.1-6.5 23.2-7.6 29.3-2 10.9-4.1 24.9-4 27.5 0 2.6.3 3 2.5 2.7 1.4-.1 8.3-.3 15.4-.5l12.8-.1-.6-6.1c-1.2-11.3-2.2-17.7-4.2-27-.4-1.7-.8-4-1-5.2-.1-1.1-.7-3.6-1.3-5.5-.6-1.8-2.5-8.1-4.2-14.1-1.8-5.9-3.6-10.7-4-10.7-.4 0-2.1 4.4-3.8 9.7zm3.6 78.9c-.1.1-4.2.5-9.1.9-9.3.7-10 .8-21.1 3-9.8 2-10.7 2.2-15.4 3.6-2.4.7-4.5 1.8-4.8 2.5-.3.9 1.7 9 4.3 17.4.3.8.5 1.6.4 1.8 0 .1.7 1.6 1.5 3.2 1.6 3.2 3.6 3.7 7.9 2 3-1.1 21.3-4.9 27.1-5.6 2.2-.3 5.6-.7 7.5-.9 8.8-1.1 17-1.6 23-1.5 3.6.1 7.4.1 8.5 0 3.2-.2 3.5-.2 13 .5 9 .7 13.5 1.2 14.5 1.5.3.1.8.2 1.2.1.4 0 3.1.4 6 1 2.9.5 6.4 1.2 7.8 1.4 1.4.2 4 .8 5.8 1.4 1.8.5 3.6 1 4 1.1 2.1.3 14.9 4.2 16.4 5 1 .6 2.6 1 3.6 1s2.2.4 2.7.8c.6.5 2.6 1.5 4.5 2.2 5.7 2.1 25.5 12.1 25.8 13.1.2.5.9.9 1.5.9 1 0 14.2 8.4 15.7 10 .3.3 2.2 1.8 4.3 3.3 3.9 2.9 5.4 4.3 14.8 13.2 4.7 4.4 13.1 13.8 18.3 20.5 3.6 4.7 9.8 14.6 13.9 22 3.8 7.1 10.3 21.9 11.2 25.5 1.2 5.2 1.9 6.5 3.5 6.5 3.2 0 3.2-1.7.4-9.8-4.1-11.8-13.6-32.2-18.9-40.7-1.4-2.2-3.1-5-3.7-6.3-.6-1.2-1.5-2.2-2-2.2-.4 0-.8-.5-.8-1.2 0-3.7-27.6-35-39.5-44.8-26.8-22.2-49.3-34.1-85-45-4.5-1.4-20.7-4.6-28-5.5-10.8-1.4-39.8-2.8-40.8-1.9zM1 311.8c-.6.2-1 4.7-1 10.8V333h27v-10.5c0-5.8-.3-10.5-.7-10.6-2.4-.3-24.5-.3-25.3-.1zm41.4 1.4c-.7 1.1-.7 85.8 0 86.5.7.7 23.3.6 24.4-.1.4-.2.7-14.2.7-31.1 0-16.9.2-30.8.5-31 .3-.2 1.7 1.7 3 4.3 1.4 2.6 3.6 6.7 5 9.2 1.5 2.5 4.4 7.6 6.5 11.5 2.1 3.8 5.2 9.5 6.9 12.5 5.2 9.2 6 10.7 9.5 17.5 1.9 3.6 3.8 6.8 4.2 7.1.7.4 10.6.7 17.9.5 2.1-.1 3.5-1.9 9.5-12.7 3.9-6.9 8.2-14.6 9.7-17.2 1.5-2.6 3-5.4 3.4-6.2.5-.8 3-5.3 5.8-10 2.7-4.7 5.9-10.3 7-12.5l2.1-4 .3 31.3.2 31.4 3.3-.2c1.7-.1 3.5-.1 4 0 .7.2 11.3.2 16.5.1l2.7-.1-.2-37.7c-.1-20.8-.2-40.5-.3-43.9v-6l-20.4.1c-11.3 0-20.7.2-20.9.5-.3.3-7.2 12.8-15.3 27.8-16.4 30.3-14.9 28.9-19.8 19.2-1.3-2.5-4.2-8.1-6.6-12.5-2.4-4.4-5.8-10.9-7.7-14.4-1.8-3.5-3.8-7-4.4-7.8-.6-.7-.8-1.3-.3-1.3s.5-.4-.1-.8c-.5-.4-2.2-3-3.7-5.7l-2.7-5H63c-11.1-.1-20.4.3-20.6.7zm156.2-.2c-.2.3-.2 19.8-.2 43.5l.1 42.9 2.4.6c1.4.3 4.9.3 7.8 0 2.9-.3 5.3-.4 5.3-.1 0 .4 1.7.5 3.7.4 2.1-.1 4.5-.2 5.4-.2 1.3-.1 1.5-3.7 1.5-31.1-.1-17.1.1-31 .4-31 .5 0 3.1 4.6 13.3 23.4 2.2 3.9 5 8.8 6.3 10.8 1.3 2.1 2.4 4 2.4 4.2 0 .2 2.3 4.3 5 9.1 2.8 4.8 5 9.1 5 9.6s.5.9 1 .9c.6 0 1 .7 1 1.5 0 2 3.9 3.5 6.6 2.4 1.2-.4 2.5-.5 2.8-.2.6.6 11.6.7 12 .1 1.6-2.2 25.6-46.1 25.6-46.7 0-.5.3-1.1.8-1.3.4-.2 2.3-3.4 4.2-7.2 3.3-6.4 3.5-6.6 4-4 .3 1.6.5 15.4.4 30.7 0 15.3.3 28 .7 28.2.6.4 20.9.9 24.4.6.7-.1 1.1-14.3 1-43.9v-43.7h-20.7l-20.7-.1-2.5 5.1c-3 5.8-10.2 19.4-16.8 31.6-2.6 4.7-5.9 10.9-7.4 13.7-1.5 2.9-3 5.2-3.3 5.2-.3 0-1.4-1.7-2.3-3.8-2.6-5.5-7.2-13.7-8-14-.5-.2-.8-.8-.8-1.4 0-.6-2-4.6-4.5-9s-4.5-8.6-4.5-9.4c0-.8-.4-1.4-.8-1.4-.5 0-2.3-2.8-4-6.3-5.4-11.1-3.2-10.2-26.2-10.2-11.1-.1-20.3.2-20.4.5zm193.6 3c-2.1 4.1-10.6 19.8-13.9 25.5-1.2 2.2-2.9 5.3-3.7 7-.8 1.6-3.2 6.1-5.4 10-2.1 3.8-6 11-8.7 16-2.6 4.9-6.2 11.5-7.9 14.5-1.7 3-3.7 6.7-4.3 8.2l-1.2 2.6 6.8.4c3.8.2 8.2.1 9.7-.2 1.6-.3 4.8-.3 7.2.1 5.1.7 6.3-.2 9.4-7 1.2-2.5 2.5-4.8 2.8-5.1.4-.3.9-1.2 1.2-2 .5-1.3 4.3-1.6 27.8-1.5h27.2l4.1 7.8 4 7.7h17c4.3 0 8.2-.2 8.7-.5.4-.3 1-.1 1.2.5.2.5.9.6 1.6.1 1-.6-1.1-5.2-8.6-18.7-5.4-9.8-11.2-20.4-12.9-23.4-1.7-3-4.3-7.8-5.8-10.5-8-14.6-15.4-28.1-17.3-31.8-.7-1.5-1.7-2.8-2-2.8-.4-.1-8.5-.2-18-.3l-17.2-.2-1.8 3.6zm24 25c4.3 8 11 21 11.9 23 .6 1.4-1.4 1.6-16.2 1.6-9.3 0-16.8-.3-16.7-.7 2.8-6.4 16.4-31.7 16.9-31.1.3.4 2.2 3.6 4.1 7.2zm65.7-27.5c0 .5-.1 20.1-.2 43.5v42.5l3.1.3c1.8.1 3.8.3 4.5.3.6.1 3.9 0 7.2-.1 3.3-.1 6.5-.1 7 0 .6.1 2.1.2 3.5.1l2.5-.1v-21.8h28c29.9.1 33.3-.3 38-3.5 8.5-5.8 10.8-11.5 11.2-26.7.4-16.1-1.8-23.4-8.5-29-7.3-6-10.3-6.4-55.4-6.5-27.7-.1-40.8.2-40.9 1zm74.6 23.5c1.7 1.7 2.5 3.7 2.6 6.5.2 6.3 0 7.2-2.4 10l-2.2 2.7h-22.3c-12.2.1-22.4-.1-22.7-.4-.5-.4-.8-10.9-.6-18.4l.1-3h22.5l22.5.1 2.5 2.5zm86 7c.9 6.1.9 22.2.1 24.9l-.8 2.4 7-.7c3.8-.4 8-.9 9.3-1.1 1.3-.3 4.1-.7 6.1-1 4.1-.5 18.3-3.7 28.8-6.5 4.9-1.3 12.6-3.7 15-4.7.8-.3 1.8-.7 2.2-.7 2.3-.3 1.4-1.6-1.9-2.6-2.1-.6-4.5-1.4-5.3-1.7-.8-.3-1.9-.7-2.5-.9-.5-.1-4.4-1.2-8.5-2.4-4.1-1.1-8.6-2.3-10-2.6-1.4-.3-4.5-1-7-1.5-5.8-1.4-6.6-1.5-12.3-2.3-2.7-.4-5.7-.9-6.7-1.1-1-.2-4.6-.6-8-1l-6.1-.6.6 4.1zM.2 371.4l.3 28.9 5-.1c2.8 0 7.7-.1 11-.2s6.5-.1 7 0c3.5.8 3.5.4 3.5-28.8v-28.7H0l.2 28.9zm201.1 47.4c-1.7 1.1-.9 4.3 4.2 17.7 13.7 36.1 40.1 71.1 71 94.4 3.9 2.9 7.7 5.8 8.5 6.5.9.6 4.2 2.8 7.4 4.6 3.2 1.9 7.2 4.3 9 5.4 8.3 5 32.6 16.1 32.6 14.9 0-.3.6-.1 1.3.5 2.7 2.3 25.3 8.2 42.2 11.1 16.9 2.9 48.5 3.2 60.5.5 1.4-.3 4.1-.7 6-.9 6.2-.7 26.3-5.5 27.6-6.6.9-.7 1.1-1.7.5-2.8-.5-.9-.9-1.8-.9-2.1 0-1.2-2.5-10-4.4-15.3-2.3-6.3-2.6-6.4-10.3-4.4-5.3 1.4-15.3 3.5-20 4.2-1.1.2-3.6.6-5.5 1-5.6 1-10.9 1.5-20.5 2-4.9.2-9.2.5-9.5.6-2.1.5-27.9-.7-33-1.7-1.4-.2-4.7-.7-7.5-1-2.7-.4-5.3-.8-5.6-1-.4-.2-2.4-.6-4.5-1-5.4-.8-17.5-4.1-26.4-7.1-7.9-2.7-9.7-3.4-20-8.1-3.6-1.6-6.9-2.9-7.4-3-.5 0-1.2-.4-1.5-.9-.3-.4-2.6-1.9-5.1-3.2-6.3-3.3-21.5-13.6-27.5-18.5-12.1-9.9-27.8-27.1-36.5-40.1-5.3-8-14.5-26.3-17.5-35-4-11.7-4.5-12.4-7.2-10.7zm185.3 178.1c-.6 1 .6 12.8 2.4 23.1 1.6 8.7 1.8 10 4.1 19 1.2 4.7 2.2 8.9 2.4 9.5.1.5.5 1.7.8 2.5.3.8 1.4 4.3 2.5 7.8 1 3.5 2.3 6.4 2.8 6.5 1.8.4 10.9-31.9 12.9-45.8.3-2.3.8-5.2 1-6.5.3-1.4.8-5.7 1.2-9.6l.6-7.2-4 .7c-3.8.7-18 .6-23.6-.2-1.5-.2-2.9-.1-3.1.2z"/></svg>