<svg width="94" height="82" viewBox="0 0 713 624" fill="none" xmlns="http://www.w3.org/2000/svg">
<path d="M393.56 553.11C391.06 553.11 388.56 552.48 386.05 552.48C387.885 574.868 392.511 596.939 399.82 618.18C401.07 621.31 401.69 623.18 401.69 623.18C401.69 623.18 402.32 621.3 403.57 618.18C407.32 608.18 414.83 583.18 417.33 552.48C412.149 553.238 406.925 553.659 401.69 553.74C398.965 553.844 396.236 553.632 393.56 553.11Z" fill="#747274"/>
<path d="M200.22 377.29V376.67C200.22 375.42 200.85 374.79 202.1 374.16H202.73C203.97 374.16 204.6 374.79 205.23 376.04C229.63 456.13 307.84 506.19 396.06 506.19C418.498 506.144 440.821 502.984 462.39 496.8H463C464.25 496.8 464.88 497.42 465.51 498.68L472.39 520.57V521.2C472.39 521.83 472.39 521.83 471.76 522.45C471.13 523.07 471.14 523.7 470.51 523.7C449.86 529.34 429.21 532.46 409.19 532.46C315.34 531.84 228.99 471.15 200.19 377.29" fill="#BE2226"/>
<path d="M481.78 268.42H555C580.65 268.42 586.91 281.56 586.91 298.42V306C586.91 319.14 581.28 334.16 562.51 334.16H509.31V356H481.78V268.42ZM508.69 312.22H550.61C556.86 312.22 559.37 307.84 559.37 302.83V299.71C559.37 294.08 556.24 290.32 548.11 290.32H508.69V312.22Z" fill="#747274"/>
<path d="M394.19 268.42H429.19L477.4 356H447.4L439.26 340.36H384.8L376.67 356H346.67L394.19 268.42ZM394.81 321.61H429.22L411.71 288.45L394.81 321.61Z" fill="#747274"/>
<path d="M198.34 268.42H239.64L270.3 324.74L300.33 268.42H341.63V356.02H315.35V292.82L280.31 356.02H260.29L224.62 292.82V356.02H198.34V268.42Z" fill="#747274"/>
<path d="M41.9199 268.42H83.2199L113.25 324.74L143.91 268.42H185.2V356.02H158.93V292.82L123.26 356.02H103.24L68.1999 292.82H67.5799V356.02H41.9199V268.42Z" fill="#747273"/>
<path d="M0 356H26.91V298.46H0V356ZM0 289.05H26.91V267.8H0V289.05Z" fill="#747274"/>
<path d="M643.21 319.73C643.096 322.274 642.676 324.796 641.96 327.24C664.347 325.398 686.417 320.773 707.66 313.47C710.78 312.22 712.66 311.59 712.66 311.59C712.66 311.59 710.78 310.97 707.66 309.72C697.66 306.59 672.66 298.46 641.96 295.95C642.709 301.131 643.127 306.355 643.21 311.59C643.842 314.266 643.842 317.053 643.21 319.73Z" fill="#747274"/>
<path d="M619.44 247.15C618.81 246.52 618.18 246.52 618.18 245.9C593.78 165.81 515.57 115.75 427.35 115.75C404.905 115.793 382.575 118.953 361 125.14H360.37C359.12 125.14 358.49 124.51 357.87 123.26L351 101.36V99.4901C351.63 98.8601 351.63 98.2301 352.25 98.2301C372.138 92.2642 392.807 89.3114 413.57 89.4701C506.8 89.4701 593.77 150.17 622.57 244.02V245.9C622.549 246.225 622.41 246.53 622.18 246.76C621.95 246.99 621.645 247.129 621.32 247.15H620.7C620.07 247.77 619.45 247.77 619.45 247.15" fill="#BE2226"/>
<path d="M409.83 69.45C412.33 69.45 414.83 70.08 417.34 70.08C415.499 47.6928 410.873 25.6226 403.57 4.38C402.851 2.96118 402.224 1.49825 401.69 0C401.69 0 401.07 1.88 399.82 5C396.69 15 388.56 40 386.05 70.7C391.231 69.9509 396.455 69.5334 401.69 69.45H409.83Z" fill="#747274"/>
</svg>
