<?xml version="1.0" standalone="no"?>
<!DOCTYPE svg PUBLIC "-//W3C//DTD SVG 20010904//EN"
 "http://www.w3.org/TR/2001/REC-SVG-20010904/DTD/svg10.dtd">
<svg version="1.0" xmlns="http://www.w3.org/2000/svg"
 width="713.000000pt" height="713.000000pt" viewBox="0 0 713.000000 713.000000"
 preserveAspectRatio="xMidYMid meet">
<metadata>
Created by potrace 1.14, written by Peter Selinger 2001-2017
</metadata>
<g transform="translate(0.000000,713.000000) scale(0.100000,-0.100000)"
fill="#000000" stroke="none">
<path d="M3981 6583 c-31 -101 -65 -232 -76 -293 -20 -109 -41 -249 -40 -275
0 -26 3 -30 25 -27 14 1 83 3 154 5 l128 1 -6 61 c-12 113 -22 177 -42 270 -4
17 -8 40 -10 52 -1 11 -7 36 -13 55 -6 18 -25 81 -42 141 -18 59 -36 107 -40
107 -4 0 -21 -44 -38 -97z"/>
<path d="M4017 5794 c-1 -1 -42 -5 -91 -9 -93 -7 -100 -8 -211 -30 -98 -20
-107 -22 -154 -36 -24 -7 -45 -18 -48 -25 -3 -9 17 -90 43 -174 3 -8 5 -16 4
-18 0 -1 7 -16 15 -32 16 -32 36 -37 79 -20 30 11 213 49 271 56 22 3 56 7 75
9 88 11 170 16 230 15 36 -1 74 -1 85 0 32 2 35 2 130 -5 90 -7 135 -12 145
-15 3 -1 8 -2 12 -1 4 0 31 -4 60 -10 29 -5 64 -12 78 -14 14 -2 40 -8 58 -14
18 -5 36 -10 40 -11 21 -3 149 -42 164 -50 10 -6 26 -10 36 -10 10 0 22 -4 27
-8 6 -5 26 -15 45 -22 57 -21 255 -121 258 -131 2 -5 9 -9 15 -9 10 0 142 -84
157 -100 3 -3 22 -18 43 -33 39 -29 54 -43 148 -132 47 -44 131 -138 183 -205
36 -47 98 -146 139 -220 38 -71 103 -219 112 -255 12 -52 19 -65 35 -65 32 0
32 17 4 98 -41 118 -136 322 -189 407 -14 22 -31 50 -37 63 -6 12 -15 22 -20
22 -4 0 -8 5 -8 12 0 37 -276 350 -395 448 -268 222 -493 341 -850 450 -45 14
-207 46 -280 55 -108 14 -398 28 -408 19z"/>
<path d="M10 4012 c-6 -2 -10 -47 -10 -108 l0 -104 135 0 135 0 0 105 c0 58
-3 105 -7 106 -24 3 -245 3 -253 1z"/>
<path d="M424 3998 c-7 -11 -7 -858 0 -865 7 -7 233 -6 244 1 4 2 7 142 7 311
0 169 2 308 5 310 3 2 17 -17 30 -43 14 -26 36 -67 50 -92 15 -25 44 -76 65
-115 21 -38 52 -95 69 -125 52 -92 60 -107 95 -175 19 -36 38 -68 42 -71 7 -4
106 -7 179 -5 21 1 35 19 95 127 39 69 82 146 97 172 15 26 30 54 34 62 5 8
30 53 58 100 27 47 59 103 70 125 l21 40 3 -313 2 -314 33 2 c17 1 35 1 40 0
7 -2 113 -2 165 -1 l27 1 -2 377 c-1 208 -2 405 -3 439 l0 60 -204 -1 c-113 0
-207 -2 -209 -5 -3 -3 -72 -128 -153 -278 -164 -303 -149 -289 -198 -192 -13
25 -42 81 -66 125 -24 44 -58 109 -77 144 -18 35 -38 70 -44 78 -6 7 -8 13 -3
13 5 0 5 4 -1 8 -5 4 -22 30 -37 57 l-27 50 -201 0 c-111 1 -204 -3 -206 -7z"/>
<path d="M1986 4000 c-2 -3 -2 -198 -2 -435 l1 -429 24 -6 c14 -3 49 -3 78 0
29 3 53 4 53 1 0 -4 17 -5 37 -4 21 1 45 2 54 2 13 1 15 37 15 311 -1 171 1
310 4 310 5 0 31 -46 133 -234 22 -39 50 -88 63 -108 13 -21 24 -40 24 -42 0
-2 23 -43 50 -91 28 -48 50 -91 50 -96 0 -5 5 -9 10 -9 6 0 10 -7 10 -15 0
-20 39 -35 66 -24 12 4 25 5 28 2 6 -6 116 -7 120 -1 16 22 256 461 256 467 0
5 3 11 8 13 4 2 23 34 42 72 33 64 35 66 40 40 3 -16 5 -154 4 -307 0 -153 3
-280 7 -282 6 -4 209 -9 244 -6 7 1 11 143 10 439 l0 437 -207 0 -207 1 -25
-51 c-30 -58 -102 -194 -168 -316 -26 -47 -59 -109 -74 -137 -15 -29 -30 -52
-33 -52 -3 0 -14 17 -23 38 -26 55 -72 137 -80 140 -5 2 -8 8 -8 14 0 6 -20
46 -45 90 -25 44 -45 86 -45 94 0 8 -4 14 -8 14 -5 0 -23 28 -40 63 -54 111
-32 102 -262 102 -111 1 -203 -2 -204 -5z"/>
<path d="M3922 3970 c-21 -41 -106 -198 -139 -255 -12 -22 -29 -53 -37 -70 -8
-16 -32 -61 -54 -100 -21 -38 -60 -110 -87 -160 -26 -49 -62 -115 -79 -145
-17 -30 -37 -67 -43 -82 l-12 -26 68 -4 c38 -2 82 -1 97 2 16 3 48 3 72 -1 51
-7 63 2 94 70 12 25 25 48 28 51 4 3 9 12 12 20 5 13 43 16 278 15 l272 0 41
-78 40 -77 46 0 c25 0 81 0 124 0 43 0 82 2 87 5 4 3 10 1 12 -5 2 -5 9 -6 16
-1 10 6 -11 52 -86 187 -54 98 -112 204 -129 234 -17 30 -43 78 -58 105 -80
146 -154 281 -173 318 -7 15 -17 28 -20 28 -4 1 -85 2 -180 3 l-172 2 -18 -36z
m240 -250 c43 -80 110 -210 119 -230 6 -14 -14 -16 -162 -16 -93 0 -168 3
-167 7 28 64 164 317 169 311 3 -4 22 -36 41 -72z"/>
<path d="M4819 3995 c0 -5 -1 -201 -2 -435 l0 -425 31 -3 c18 -1 38 -3 45 -3
6 -1 39 0 72 1 33 1 65 1 70 0 6 -1 21 -2 35 -1 l25 1 0 109 0 109 280 0 c299
-1 333 3 380 35 85 58 108 115 112 267 4 161 -18 234 -85 290 -73 60 -103 64
-554 65 -277 1 -408 -2 -409 -10z m746 -235 c17 -17 25 -37 26 -65 2 -63 0
-72 -24 -100 l-22 -27 -223 0 c-122 -1 -224 1 -227 4 -5 4 -8 109 -6 184 l1
30 225 0 225 -1 25 -25z"/>
<path d="M6425 3690 c9 -61 9 -222 1 -249 l-8 -24 70 7 c38 4 80 9 93 11 13 3
41 7 61 10 41 5 183 37 288 65 49 13 126 37 150 47 8 3 18 7 22 7 23 3 14 16
-19 26 -21 6 -45 14 -53 17 -8 3 -19 7 -25 9 -5 1 -44 12 -85 24 -41 11 -86
23 -100 26 -14 3 -45 10 -70 15 -58 14 -66 15 -123 23 -27 4 -57 9 -67 11 -10
2 -46 6 -80 10 l-61 6 6 -41z"/>
<path d="M2 3416 l3 -289 50 1 c28 0 77 1 110 2 33 1 65 1 70 0 35 -8 35 -4
35 288 l0 287 -135 0 -135 0 2 -289z"/>
<path d="M2013 2942 c-17 -11 -9 -43 42 -177 137 -361 401 -711 710 -944 39
-29 77 -58 85 -65 9 -6 42 -28 74 -46 32 -19 72 -43 90 -54 83 -50 326 -161
326 -149 0 3 6 1 13 -5 27 -23 253 -82 422 -111 169 -29 485 -32 605 -5 14 3
41 7 60 9 62 7 263 55 276 66 9 7 11 17 5 28 -5 9 -9 18 -9 21 0 12 -25 100
-44 153 -23 63 -26 64 -103 44 -53 -14 -153 -35 -200 -42 -11 -2 -36 -6 -55
-10 -56 -10 -109 -15 -205 -20 -49 -2 -92 -5 -95 -6 -21 -5 -279 7 -330 17
-14 2 -47 7 -75 10 -27 4 -53 8 -56 10 -4 2 -24 6 -45 10 -54 8 -175 41 -264
71 -79 27 -97 34 -200 81 -36 16 -69 29 -74 30 -5 0 -12 4 -15 9 -3 4 -26 19
-51 32 -63 33 -215 136 -275 185 -121 99 -278 271 -365 401 -53 80 -145 263
-175 350 -40 117 -45 124 -72 107z"/>
<path d="M3866 1161 c-6 -10 6 -128 24 -231 16 -87 18 -100 41 -190 12 -47 22
-89 24 -95 1 -5 5 -17 8 -25 3 -8 14 -43 25 -78 10 -35 23 -64 28 -65 18 -4
109 319 129 458 3 23 8 52 10 65 3 14 8 57 12 96 l6 72 -40 -7 c-38 -7 -180
-6 -236 2 -15 2 -29 1 -31 -2z"/>
</g>
</svg>
