<svg width="180" height="54" fill="none" xmlns="http://www.w3.org/2000/svg"><path d="M.25 26.86a26.65 26.65 0 1126.61 26.67A26.64 26.64 0 01.25 26.86z" fill="#fff"/><path d="M26.86 48.1A21.24 21.24 0 105.62 26.86 21.25 21.25 0 0026.86 48.1z" fill="#fff"/><path d="M85.4 9.53v14.54c0 8.51-5.8 11.45-12.84 11.45-7.46 0-12.84-3.46-12.84-11.41V9.53h6.4v14.73c0 3.69 2.67 5.91 6.36 5.91 3.39 0 6.52-1.77 6.52-6.36V9.53h6.4zm22.42 6.63c-3.73-1.66-5.95-2.3-8.14-2.3-2.19 0-3.77.83-3.77 2.11 0 3.88 13.08 2.79 13.08 11.76 0 4.93-4.15 7.79-9.87 7.79a17.49 17.49 0 01-9.27-2.48v-5.51c3.69 2.45 6 3.31 8.78 3.31 2.44 0 3.76-.86 3.76-2.37 0-4.22-13.07-2.68-13.07-11.9 0-4.45 3.84-7.39 9.8-7.39 3.01.038 5.976.72 8.7 2v4.98zM63 41.52h-2.4v1.7H63v.79h-2.4v2.86h-.88v-6.14H63v.79zm2.5-.8c1.24 0 2 .66 2 1.72a1.54 1.54 0 01-1 1.51 5 5 0 011.37 1.7c.26.42.41.63.83 1.21h-1l-.81-1.26c-.81-1.26-1.18-1.4-1.63-1.4h-.37v2.66h-.94v-6.14h1.55zm-.67 2.69h.57c.94 0 1.21-.49 1.21-1s-.36-.88-1.21-.88h-.57v1.88zm6.93-2.77a3.15 3.15 0 11-3.29 3.15 3.13 3.13 0 013.29-3.15zm0 5.49a2.34 2.34 0 10-2.39-2.34 2.308 2.308 0 002.39 2.34zm9.91.74h-.88v-4.78h-.02l-1.89 2.37h-.15l-1.89-2.37h-.01v4.78h-.89v-6.14h.83l2.04 2.52 2.04-2.52h.82v6.14zm8.16-5.35H87.7v5.35h-.88v-5.35H84.7v-.79h5.13v.79zm5.94 5.35h-.88v-2.68h-3.44v2.68h-.89v-6.14h.89v2.67h3.44v-2.67h.88v6.14zm4.82-5.35h-2.6v1.85h2.51v.79h-2.51v1.91h2.68v.8h-3.56v-6.14h3.48v.79zm8.71 5.34h-.9l-.82-1.81h-2.61l-.78 1.81h-.94l2.64-6.17h.62l2.79 6.17zm-4-2.6h1.95l-1-2.22-.95 2.22zm10.29 2.61h-.88v-4.78h-.02l-1.89 2.37h-.15l-1.89-2.37h-.01v4.78h-.89v-6.14h.83l2.04 2.52 2.04-2.52h.82v6.14zm4.78-5.35h-2.6v1.85h2.51v.79h-2.51v1.91h2.68v.8h-3.56v-6.14h3.48v.79zm2.58-.8c1.25 0 2 .66 2 1.72a1.55 1.55 0 01-1 1.51 4.997 4.997 0 011.36 1.7c.26.42.42.63.84 1.21h-1.05l-.85-1.26c-.81-1.26-1.18-1.4-1.63-1.4h-.37v2.66h-.88v-6.14h1.58zm-.7 2.69h.56c1 0 1.22-.49 1.21-1-.01-.51-.35-.93-1.21-.93h-.56v1.93zm5.19-2.68h-.88v6.14h.88v-6.14zm6.41 1.36a4.003 4.003 0 00-2.11-.64 2.342 2.342 0 00-2.49 2.35 2.29 2.29 0 002.48 2.33 4 4 0 002.14-.69v1a4.431 4.431 0 01-2.22.55 3.14 3.14 0 01-3.31-3.07 3.2 3.2 0 013.37-3.24c.727.026 1.442.2 2.1.51l.04.9zm6.4 4.77h-.9l-.82-1.81h-2.61l-.77 1.81h-.9l2.64-6.17h.62l2.74 6.17zm-4-2.6h1.91l-1-2.22-.91 2.22zm10.22 2.61h-.75l-4.11-4.73v4.73h-.82v-6.14h.7l4.16 4.75v-4.75h.82v6.14zm5.95-6.15a1.72 1.72 0 012 1.77c0 1-.64 1.72-2.07 1.72h-.92v2.65h-.88v-6.14h1.87zm-1 2.69h1c.66 0 1.08-.35 1.08-1 0-.45-.24-.93-1-.93h-1l-.08 1.93zm7.2-1.89h-2.6v1.85h2.51v.79h-2.51v1.91h2.68v.8h-3.56v-6.14h3.48v.79zm4.04-.88a3.15 3.15 0 11-3.3 3.15 3.125 3.125 0 012.045-2.96 3.132 3.132 0 011.255-.19zm0 5.49a2.337 2.337 0 002.111-1.492 2.335 2.335 0 00-.551-2.526 2.34 2.34 0 00-3.97 1.678 2.307 2.307 0 00.691 1.685 2.285 2.285 0 001.699.655m6.09-5.41a1.73 1.73 0 012 1.77c0 1-.65 1.72-2.07 1.72h-.92v2.65h-.89v-6.14h1.88zm-1 2.69h1a.998.998 0 001.08-1c0-.45-.25-.93-1.05-.93h-1l-.03 1.93zm4.59 2.66h2.77v.8h-3.65v-6.14h.88v5.34zm6.93-4.55h-2.6v1.85h2.51v.79h-2.51v1.91h2.68v.8h-3.56v-6.14h3.48v.79zM0 26.86A26.87 26.87 0 1026.86 0 26.89 26.89 0 000 26.86zm.44 0a26.42 26.42 0 1126.42 26.42A26.45 26.45 0 01.44 26.86z" fill="#002F6C"/><path d="M5.4 26.86A21.47 21.47 0 1026.86 5.4 21.48 21.48 0 005.4 26.86zm.44 0a21 21 0 1142 0 21 21 0 01-42 0z" fill="#002F6C"/><path d="M39.19 34.45H14.64v3.85h24.55v-3.85zm0-22.34H14.64v7.12h24.55v-7.12z" fill="#002F6C"/><path d="M39.19 12.11H14.64v7.12h24.55v-7.12zm11.63 10.43l-.01 1.01-.6-.82-.97.32.6-.82-.6-.81.97.33.61-.82v1l.94.31-.94.3zm-48.09-.61v-1.01l.61.82.98-.31-.61.81.6.81-.97-.32-.61.82v-1.01l-.94-.31.94-.3zm1.93-7.62l1.49.73a1.47 1.47 0 01-1.29 2.63l-1.49-.74.32-.65 1.51.74a.66.66 0 00.93-.35.68.68 0 00-.33-1l-1.46-.72.32-.64zm4.59-1.58l-.35.5-2.46.25 1.53 1.08-.42.59-2.39-1.68.38-.54 2.36-.26-1.46-1.02.42-.6 2.39 1.68zm-1.3-2.922l-.482.549 2.204 1.93.481-.548-2.204-1.931zm2.88-2.078l-.77.73 1.64 1.74-.54.5-1.63-1.74-.78.73-.36-.4 2.07-1.95.37.39zm3.67.26l-1.74 1.27-1.73-2.36 1.72-1.26.32.44-1.13.82.36.5 1.08-.79.31.43-1.07.79.41.57 1.16-.84.31.43zm.11-3.46a1.46 1.46 0 012.13.52c.4.73.23 1.53-.8 2.09l-1.06.58-1.4-2.57 1.13-.62zm.64 2.38l.42-.23a.925.925 0 00-.89-1.62l-.42.22.89 1.63zm4.86-3.83a2.17 2.17 0 00-1 0c-.25.08-.38.22-.34.36.14.42 1.52-.16 1.84.81.17.53-.18 1-.8 1.19a2 2 0 01-1.09.06l-.19-.6a1.64 1.64 0 001.06.05c.27-.09.38-.23.33-.39-.15-.46-1.51.18-1.84-.82-.16-.49.15-.94.8-1.15a2.34 2.34 0 011-.09l.23.58zm3.32-.94l-1.04.2.46 2.35-.71.14-.46-2.35-1.04.21-.11-.53 2.8-.55.1.53zm3.31 2.13l-.78.06-.29-.56-1.3.1-.17.6-.77.06 1-3 .84-.07 1.47 2.81zm-1.88-2.09l-.34 1.17.9-.07-.56-1.1zm4.38-.16l-1.06-.04-.09 2.38-.73-.02.09-2.39-1.06-.04.02-.54 2.85.11-.02.54zm2.4 2.79l-2.13-.35.47-2.89 2.1.35-.09.53-1.38-.23-.1.61 1.32.21-.09.53-1.31-.21-.12.69 1.41.23-.08.53zm2.94-1.44a2.12 2.12 0 00-.82-.5c-.25-.07-.44 0-.48.11-.12.43 1.35.71 1.07 1.7-.16.54-.7.72-1.33.54a2 2 0 01-.94-.56l.18-.6c.213.296.514.516.86.63.26.08.44 0 .48-.14.13-.46-1.35-.7-1.06-1.71.14-.49.65-.69 1.3-.51a2.4 2.4 0 01.89.49l-.15.55zm3.34 3.78l-.67-.33V6.2l-1.19-.56-.44.43-.7-.33 2.33-2.15.76.36-.09 3.2zm-.61-2.74l-.87.85.82.38.05-1.23zm4.14 2.57a2.54 2.54 0 00-.77-.82.92.92 0 00-1.4.18.901.901 0 00.37 1.28c.141.095.302.156.47.18l.18-.29-.35-.23.3-.45 1 .63-.66 1a1.85 1.85 0 01-1.24-.34 1.57 1.57 0 01-.65-2.21 1.59 1.59 0 012.3-.3c.337.216.623.503.84.84l-.39.53zm.96 3.54l-1.63-1.41 1.91-2.22 1.61 1.39-.35.41-1.06-.91-.4.46 1.01.87-.35.41-1.01-.87-.46.53 1.08.94-.35.4zm2.31 2.53l-.41-.46.34-2.46-1.41 1.25-.48-.55 2.19-1.94.45.5-.31 2.36 1.34-1.19.48.55-2.19 1.94zm2.02 2.58a2.24 2.24 0 01-.87-.8 1.53 1.53 0 01.32-2.24 1.59 1.59 0 012.23.65 2 2 0 01.36 1l-.54.35a2.2 2.2 0 00-.3-1 .91.91 0 10-1.51 1c.222.304.513.55.85.72l-.54.32zm1.6.73l.92-1.7.38.8-.56.96 1.1.19.37.8-1.9-.39-1.24.59-.31-.66 1.24-.59zM4.4 27.399l-2.928.112.028.73 2.928-.113-.028-.73zM1.95 32.06l-.09-.61 1.62-1.87-1.86.27-.11-.72 2.9-.42.1.66-1.54 1.8 1.77-.26.1.72-2.89.43zm3.26 2.76l-.3-1.02-2.29.69-.21-.7 2.29-.69-.3-1.01.51-.15.82 2.73-.52.15zm-1.15 3.3l-.87-1.97 2.68-1.18.85 1.94-.49.22-.56-1.28-.56.25.53 1.22-.49.22-.53-1.23-.65.29.58 1.31-.49.21zm3.54.34a.87.87 0 01-.23 1.25.74.74 0 01-.87-.06c0 .33-.24.59-.77 1.38l-.41-.69c.38-.59.8-1 .6-1.31l-.11-.18-1 .6-.37-.62 2.52-1.5.64 1.13zm-1.35.07l.2.34a.34.34 0 00.49.17c.19-.11.22-.29.07-.53l-.18-.31-.58.33zm1.67 5.33l-.38-.48.46-2.43-1.47 1.17-.45-.57 2.28-1.83.42.52-.42 2.34 1.4-1.11.45.56-2.29 1.83zm2.86 2.74l-.53-.54.21-.58-1-.9-.56.28-.56-.53 2.91-1.34.62.58-1.09 3.03zm.26-2.8l-1.08.54.66.62.42-1.16zm3.34 2.46l-.85-.63-1.42 1.92-.58-.43 1.41-1.92-.85-.63.32-.43 2.29 1.69-.32.43zm.653-.49l-1.495 2.52.628.372 1.495-2.52-.628-.372zm1.297 4.26a1.513 1.513 0 01-.85-2.043 1.51 1.51 0 012.1-.697 1.508 1.508 0 01.85 2.043 1.512 1.512 0 01-2.1.697zm1-2.18a.89.89 0 10.47 1.19.85.85 0 00-.47-1.19zm4.19 3.9l-.59-.16-1.06-2.24-.5 1.81-.7-.19.78-2.83.64.18 1.03 2.14.48-1.72.7.19-.78 2.82zm3.93.53l-.78-.09-.17-.61-1.25-.15-.28.55-.77-.09 1.52-2.77.84.1.89 3.06zm-1.43-2.41l-.56 1.08.89.1-.33-1.18zm4.26 2.39l-2.23.02-.02-2.93.73-.01.01 2.39 1.51-.01v.54zm2.68-3.28a1.44 1.44 0 011.85 1.15c.16.83-.26 1.53-1.41 1.74l-1.15.22-.52-2.88 1.23-.23zm-.12 2.45l.46-.08a.86.86 0 00.77-1.09.849.849 0 00-1.11-.73l-.46.08.34 1.82zm5.06-.75l-2.06.66-.89-2.78 2.02-.65.17.5-1.34.43.19.59 1.27-.41.17.51-1.27.41.21.67 1.36-.44.17.51zm2.04-.85l-.29.14-2.54-2.09.72-.34 1.41 1.19-.04-1.82.71-.34.03 3.26zm3.53-2.06l-1.83 1.15-1.56-2.48 1.8-1.13.29.45-1.19.75.33.52 1.13-.72.29.46-1.13.71.37.6 1.21-.77.29.46zm2.37-1.87l-1.74 1.4-1.83-2.28.57-.45 1.5 1.86 1.16-.94.34.41zm1.61-1.55a1.51 1.51 0 110-2.25 1.57 1.57 0 010 2.25zm-1.75-1.64a.89.89 0 101.28-.06.85.85 0 00-1.28.06zm1.72-3.03a.878.878 0 011.538-.043.88.88 0 01-.108 1.043l-.33.47 1 .68-.42.6-2.4-1.69.72-1.06zm.66 1.16l.17-.31c.2-.28.17-.44 0-.57-.17-.13-.36-.08-.59.24l-.15.21.57.43zm1.25-4.51l.29-.56 2.61 1.32-.33.65-1.63-.83.46 1.12-.05.1-1.18.29 1.63.83-.33.65-2.61-1.33.29-.56 1.39-.35-.54-1.33zm3.92-2.16l-.7 2.05-2.77-.95.7-2.01.5.17-.45 1.32.58.2.43-1.26.51.17-.43 1.27.66.22.47-1.35.5.17zm.81-3.7l-.11.6-2.16 1.23 1.84.36-.14.72-2.87-.57.13-.66 2.06-1.18-1.76-.35.14-.71 2.87.56zm-2.14-3.7l-.06 1.06 2.39.13-.04.73-2.39-.13-.06 1.06-.53-.03.15-2.85.54.03z" fill="#002F6C"/><path fill-rule="evenodd" clip-rule="evenodd" d="M23.04 29.32a.231.231 0 00-.07-.07h-.06v.18a.699.699 0 00-.16.14l.2-.07H23m1.3-7.04v.06l.06.14v-.07a.33.33 0 00-.06-.12h-.07a.329.329 0 00-.1 0m.43.79l-.09.08s-.08.08-.13.07a.07.07 0 01-.06 0v-.11l-.07.07h-.05a.459.459 0 01-.07.07l-.07.07-.06.06-.07.06h-.05.36l.12-.05h.1v-.06l.06-.14c.01-.04.01-.08 0-.12l-.11.15m-.65.01l-.08.08s-.06.06-.1.09h-.05l-.09.09h.1l.2-.22a.76.76 0 00.16-.26m-.67.33h-.06l-.08.07-.05.05a.18.18 0 000 .09h.11v-.05m13.82.28h-.25.05l.19-.1m.46.15v.05h.1-.19m-10.46.69a.52.52 0 00-.11-.1l-.06-.06-.1-.07-.06-.05-.11-.07h-.79l.24.06c.074.025.144.059.21.1a.15.15 0 010 .1h.05l.09-.06.1-.05h.05c.01.03.01.06 0 .09a.3.3 0 010 .06.38.38 0 00-.1.12h.23a.29.29 0 01.19-.08.19.19 0 010 .08v.16l.15-.08s.06 0 .07-.05c.01-.05 0 0 .05 0h.08a.06.06 0 01.07 0 .19.19 0 010 .08.159.159 0 000 .07.758.758 0 00.18-.09s.07 0 .09-.07c.02-.07-.08-.07-.13-.1m6.29-.22h-.26.07v-.11l.19.11zm-6.72.73h-.15l-.11.06a.11.11 0 00.08 0h.15s.11-.13.16-.17l-.25.11m-5.82.59h-.06l-.15.11h-.06l-.11.1v.08h-.22.05l.09-.06.09-.06m.82-.1h-.07l-.09.07-.08.06h-.07a.721.721 0 00-.22.17h.2c.054-.037.111-.07.17-.1a.392.392 0 01.16-.07l.06-.07c.06-.07 0 0-.07 0m.1.29h-.14l-.16.13-.07.06c.134-.09.275-.17.42-.24m11.73.14h-1.04a.14.14 0 00-.09 0 .09.09 0 000 .07h.06v.05h.83s.08 0 .1-.06c.02-.06.07 0 0-.09h-.08m-9.99.05h-.06l-.17.13h-.08l-.09.06h-.08l-.09.09h.3l.07-.06m6.54-.07h-.1l-.09.06H29h.17s0-.05.06-.07h.06-.05m-7.57.09h-.08l-.26.26-.05.05h.12l.11-.07h.06l.05-.07a.07.07 0 000-.06m2.18 0l-.14.06h-.14v.07a.855.855 0 00.1-.08s.09 0 .07-.08m5.74.1h-.18a.667.667 0 00-.17.06h-.05v.06a.141.141 0 000 .06h.23l.07-.06.18-.16a.598.598 0 01-.11.06m.38.05l-.09.06h-.11v.05h.1c.036.01.074.01.11 0l.09-.07.13-.14v-.06h-.06m-13.76 1.77h.27l.08-.06.14-.1.06-.06.1-.09.12-.09a.12.12 0 00.05 0h.07l.21-.2h-.05l-.13.1h-.06.2l-.06.06h-.06l-.12.1h-.09a.35.35 0 01-.1.08.278.278 0 01-.09.07.459.459 0 01-.07.07 1.374 1.374 0 00-.16.18h.14m19.48-1.23l-.11.09-.08.08-.13.12-.11.1-.15.14h-.18l-.17.12c.23 0 .5 0 .72.06.04.01.08.01.12 0l.1-.09h.05c.058-.068.122-.132.19-.19h.06l.08-.06h.05l.25-.23s0-.05.06-.07l.07-.08s.07-.06.1-.1l.08-.09a.18.18 0 000-.07.24.24 0 00-.08.06l-.08.05v.06l-.09.06h-.07l-.14.11v.05h-.11l-.08.07-.09.07h-1.33v-.07l.18-.14.08-.06.07-.06a.098.098 0 00.05 0 .12.12 0 00.05 0 .86.86 0 00.47.3v-.06l-.1.08M35 27.3l-.11.07-.11.11h-.05l-.07.06h-.07l-.12.1-.23.2c-.054.05-.11.096-.17.14l-.08.08a.18.18 0 00-.08.07l-.06.06a.21.21 0 00.11 0h.29l.08-.07c.049-.04.096-.084.14-.13a1 1 0 00.15-.14l.08-.06a.765.765 0 01.09-.09.271.271 0 01.08-.07.453.453 0 01.09-.1l.07-.08h.06v-.05a.347.347 0 00.05-.08s-.05 0-.07.05a.393.393 0 00-.1.08.578.578 0 01-.12.1l-.12.12v.05a.18.18 0 01-.07 0h-.06l-.13.1h-.22l-.23.06h-.06.07l.07-.06h.08c.01.106.034.21.07.31l.07-.06.18-.18a.429.429 0 00.1-.09l.12-.12.08-.09.07-.06.06-.06.06-.07-.06.05m-17.97-.15h-.25l-.46.53-.06.05-.09.09h-.14l-.07.08h.4s0-.05.08-.07l.05-.05h.06l.07-.08.06-.06a.38.38 0 01.11-.11.803.803 0 01.13-.13l.06-.06a.23.23 0 00.07-.07h-.08m10.45.01l-.21.12h-.09v.06h.06a.24.24 0 00.1 0l.11-.1a.518.518 0 00.11-.1l.17-.17h.05m9.54.2l-.08.07a.362.362 0 00-.09.08v.1a.07.07 0 000 .06v-.06l.07-.07s0-.08.08-.11v-.06l.06-.06m-21.06.14h-.08l-.06.05-.06.06a.968.968 0 00-.16.14l-.08.07-.06.05h-.07a.83.83 0 00-.08.12.422.422 0 00-.07.13h.1a.452.452 0 00-.3.28h.08v-.05a.427.427 0 00.1-.09l.1-.1.09-.1.09-.11.2-.2.26-.25zm21.43.05h-.06l-.11.09v.08l-.09.08s-.1.06-.13.09a2.83 2.83 0 01-.29.18l-.14.11h-.07.3l.12-.09h.11v-.16m.01.62l.16-.1.08-.09.07-.08v-.06l-.08.09-.08.06h-.06l-.11.09-.07.06-.08.05-.16.11-.13.1-.06.07a.75.75 0 00.39-.12m-9.45-1.13a.64.64 0 00-.18.1h-.31l-.07.06h-.06.13l.09-.05.07-.06h.06l.27-.05zm.23.16l-.1.06h-.25l-.06.06-.13.1h-.07a.56.56 0 00.16.07h.06l.13-.09.12-.11a.31.31 0 00.08-.11h-.09m8.96.07h-.08l-.06.05-.08.06h-.24a.18.18 0 01-.08.07l-.06.06a.593.593 0 00-.08.08s-.05 0-.06.07h.34l.08-.08v-.14l.32-.17zm.81.9c.09-.024.177-.057.26-.1l.09-.07.06-.07.08-.11.08-.11h-.08a.734.734 0 01-.09.08l-.09.09a.1.1 0 00-.05 0l-.1.08-.09.06a1.82 1.82 0 01-.24.16h-.05a.112.112 0 00-.06.07h.14m-9.13-.87h-.19l-.08.06h-.06a.793.793 0 01-.15.12h.16s.05 0 .09-.07a.18.18 0 010-.07.39.39 0 00.08-.1l.05-.06m.29.39l-.12.06-.12.06a.498.498 0 00-.07.08h-.11l.09.06a.18.18 0 00.11 0l.03.05.06-.07h.05m.64-.2l-.09.06h-.09l-.09.05a.18.18 0 00-.07 0h-.19a.09.09 0 000 .05h.28a.13.13 0 01.09 0v.06h-.12.4v.06l-.15.14a.23.23 0 00.14 0h.13l.07-.06.13-.09s.07-.06.08-.09v-.08h-.28s0-.05.06-.08 0-.06.08-.08v-.12l-.13.12-.08.08h-.07a.09.09 0 01-.09 0 .08.08 0 010-.08v-.05a.16.16 0 000-.08l.05-.08a.981.981 0 000-.1l-.06.37zm-3.15-2.29v.07a.168.168 0 010 .05.24.24 0 00.08.06.649.649 0 00.16 0l.27-.11-.05.06v.05a.07.07 0 000 .06h.12l-.18.32h.08l-.09.1-.08.08v.12a.15.15 0 010 .07h-.17l-.08.07h-.18a.291.291 0 01-.11.06h-.07l.06-.06a.35.35 0 00.11-.1l.09-.08.07-.07h.05v-.06h.05v-.13l-.17.1a.299.299 0 00-.1.07l-.32.21v-.08l.13-.13.19-.2.05-.05v-.06a.08.08 0 000-.11c-.074.04-.144.088-.21.14l-.15.1a.1.1 0 01-.05 0l-.1.01v-.08a.378.378 0 00-.12.05h-.08s-.08.05-.12 0h-.21l.13-.05a.711.711 0 00.18-.08c.08-.053.163-.1.25-.14a.59.59 0 00-.14.23h.11l.14-.07.09-.06m1.12.46l-.05.08-.06.07a.12.12 0 00-.06.06l-.06.07c-.06.07 0 0-.07 0a.12.12 0 010 .05h-.13l-.09.06h-.12c.044-.05.09-.096.14-.14h.05l.11-.12v-.06l.08-.05.17-.11m-6.78.16l-.12.09h-.05l-.07.08h-.16v-.06h.06l.1-.1h.12l.24-.12" fill="#002F6C"/><path fill-rule="evenodd" clip-rule="evenodd" d="M18.51 26.98l-.12.12a1.379 1.379 0 01-.17.17l-.06.07h-.06a.47.47 0 00-.1.1l-.14.1-.09.08a.222.222 0 01-.07.06l-.06.05h-.06l-.06.06s-.07 0-.08.07a.079.079 0 000 .08h.07l.12-.09.09-.08.1-.08.09-.08.1-.08.06-.06a.515.515 0 01.11-.1l.08-.07.08-.06h.05s.08-.07.13-.09l-.15.17a.389.389 0 00-.08.1.328.328 0 00-.11.09l-.09.07c-.08.06-.15.15-.23.22h-.08l-.07.06h-.05a.78.78 0 01-.09.09.427.427 0 00-.11.12h-.9.06l.08-.05h.05a.339.339 0 01.09-.08l.28-.25.11-.08.06-.05.07-.06h.07l.08-.06a.1.1 0 00.05 0h.05l.06-.05h.06m16.19.26a.1.1 0 01.06 0l.08-.06.07-.05.14-.1h.08l-.1.12-.07.09-.06.07.13-.19-.08.07a.15.15 0 00-.07 0h-.2m-18.65.15h-.06l-.07.07-.15.13h-.06l-.06.05v.21h.06l.06-.06v-.06l.05-.06" fill="#002F6C"/><path fill-rule="evenodd" clip-rule="evenodd" d="M39.14 29.07H33V29h.07v-.05h.05l.07-.07.09-.08.08-.08a.931.931 0 00-.29.12h-.06l-.15.12-.06.06-.1.07-.15.08s-.15.1-.19.06l.09-.08a.533.533 0 01.14-.12l.12-.1.16-.14.15-.14v-.06l.06-.06s.06-.06.08-.1c.02-.04-.06 0-.08.05l-.13.09v.06l-.1.09a.19.19 0 00-.07.06h-.06l-.11.09h-.06l-.1.08h-.32l.06-.06h.12l.15-.13a.736.736 0 00.13-.12l.06-.06.05-.06h-.08l-.07.05a.27.27 0 00-.1.08h-.18a2.66 2.66 0 01-.28.18l-.12.07h-.08v-.05h.07a.14.14 0 00.07-.06l.07-.06h.05a.35.35 0 01.1-.11l.06-.06h-.12l-.19.14a1.466 1.466 0 01-.13.08h-.09v-.08a.17.17 0 01.08-.06v-.06h.05l.15-.15a.09.09 0 010-.05h-.08l-.07.06h-.16l.06-.07h.05l.06-.07v-.06c0-.06 0 0-.06 0l-.09.05h-.05a.11.11 0 01-.08 0c-.06 0-.07 0-.08-.09a.21.21 0 00.07-.11l.08-.09h-.22a.18.18 0 000 .07v.13a.242.242 0 000 .07.159.159 0 010 .07v.07a.12.12 0 000 .09v.08a.965.965 0 000 .09v.27a.31.31 0 010 .1.19.19 0 000 .08l-.05.07v.05l-.06.06h-.12.09s0-.05.07-.06a.149.149 0 00.06-.05.3.3 0 010-.1h-.14a.08.08 0 010-.08v-.12a.111.111 0 000-.06h-.17a.07.07 0 01-.06 0l.06-.07.09-.08h-.23v-.06l-.07-.16a.433.433 0 00-.05-.12v-.16a.208.208 0 010-.06.07.07 0 000-.05.19.19 0 010-.08.07.07 0 010-.05v-.07a.27.27 0 00.09-.12h-.11c.005-.06.005-.12 0-.18v-.05h.06l.08-.09a.298.298 0 000-.08.141.141 0 000-.06 1.136 1.136 0 01-.15.16l-.12.08-.14.08c0-.07-.09-.13-.07-.22a.24.24 0 00.08-.06h.05l.15-.12.12-.09h.05a.172.172 0 010 .07.31.31 0 010 .13v.05c-.01.06-.01.12 0 .18v.15-1.38a.593.593 0 000-.08.24.24 0 01.06-.11v-.25a.22.22 0 000-.08v-.06a.192.192 0 000-.07v-.08a.277.277 0 010-.09.418.418 0 010-.1v-.1a.758.758 0 00-.07-.12.562.562 0 000-.08h-.1l-.11-.13-.12-.12.11.17.11.18a.1.1 0 010 .05.666.666 0 01.06.12v.06c.003.03.003.06 0 .09v.09a.11.11 0 010 .06l.19-.07a.25.25 0 010 .08.417.417 0 010 .05l.22-.2a.259.259 0 01-.05.09l-.08.09-.08.09h-.05a.93.93 0 01-.12.09.129.129 0 01-.09 0s-.06-.07-.08-.11l.06-.06a.941.941 0 00.09-.12c-.066.05-.136.093-.21.13l-.39.06h.06c.06 0 .07-.06.1-.09 0 0 .07-.06.08-.11a.16.16 0 01.07-.07v-.11l-.14.16s-.06 0-.09.07l-.16.13a.24.24 0 01-.08.06h-.25l.06-.05v-.11h-.06c-.066.068-.14.129-.22.18a.209.209 0 01-.11.07c-.073.059-.15.112-.23.16h-.2a.33.33 0 01.12-.14h.06l.11-.1-.15.07-.16.07-.21.13h-.21c0-.05 0-.09.06-.12a.118.118 0 00.07-.07h.05a.552.552 0 00-.15.08l-.12.05h-.06l-.18.12h-.15v-.06a.15.15 0 00.05-.06h.05c-.065.022-.128.05-.19.08h.98-.16a.148.148 0 01-.07 0 .09.09 0 010-.06h.05-.4c-.05 0 0 0 0-.08h.06l-.27.09h-.32l-.09-.07h-.06l-.08-.07h-.07v-.08h.08l.05-.06a.07.07 0 000-.06h-.52a.356.356 0 01-.11 0v-.09s-.08 0-.12.06l-.1.05h-.32s.06 0 .09-.09l.05-.06.06-.06h-.08l-.08.05-.14.08h-.08a.06.06 0 010-.07l.14-.19-.16.1-.17.09-.2.1h-.12c-.03 0 0-.06 0-.08a.18.18 0 000-.07l.05-.08v-.07a.18.18 0 00.05-.07h-.11l-.08.06h-.32l.06-.08h-.13a1.51 1.51 0 01-.18-1.79h-.11c-.05 0 0 0 0-.08a.2.2 0 01.08-.08h.05l.06-.05a2.78 2.78 0 01-.31.08v-.31a.743.743 0 010 .17.612.612 0 01-.05.12.546.546 0 010 .11.617.617 0 00-.07.1l-.07.08h-.06c-.06 0-.11.06-.15.11a.806.806 0 01-.16.08h-.05a.323.323 0 01-.09 0h-1.07a.14.14 0 01-.09 0h-.45a.347.347 0 00-.13 0h-.12s0-.06-.05-.09a.797.797 0 010-.09.627.627 0 010-.07v-.15c0-.02 0 0 .1 0h.14a.11.11 0 01.08 0 .861.861 0 01.19.11h.06a.37.37 0 00.16 0h.34l.09-.07.08-.07a.942.942 0 00.06-.24v-.09h.07l.06-.05h.68l.22.07h2.92a.985.985 0 00.17 0h.43l.22.07h.29c.01 0 0 .07 0 .09v.07h.44a.13.13 0 010 .09v.05c.04.007.08.007.12 0h.35s.06 0 .06.08l-.07.06h.41a.316.316 0 000 .09v.06h.27a.19.19 0 010 .09c.06.01.12.01.18 0H31v.07s0 .09.05.12v.06-.29a.472.472 0 00-.06-.15l-.06-.14v-.06h.28a.18.18 0 010 .1v.07c0 .07.06 0 .07 0l.11-.07h.15a.423.423 0 01.12 0 .19.19 0 01-.06.07s-.07.08-.11.11h.08l.08-.05h.13l.09-.07a.13.13 0 01.08 0l.08-.05h.06v.06l-.05.06a.75.75 0 01-.09.09l-.06.06a1.67 1.67 0 01-.14.13l.15-.09.11-.08.14-.1.13-.09a.1.1 0 01.05 0 .13.13 0 01.07-.06l.13-.09.15-.1c.05 0 .1 0 .16-.06a.34.34 0 01.14 0v.06c0 .06 0 0-.07 0s0 .06-.06.09l-.08.08-.1.09-.07.05.26-.14h.06l.13-.08.12-.08.12-.07.12-.08h.19a.38.38 0 01.13-.06h.14a.08.08 0 01.08 0 .09.09 0 010 .09s-.06.07-.09.09l-.08.07.19-.07h.09l.13-.08.1-.05h.41a.29.29 0 01-.07.12v.11h.09l.12-.07h.13l.14-.08h.17v.08h.07l.1-.08h.17c.07-.08.22 0 .34 0h.08v.06l-.05.05a.17.17 0 00-.06.08h.12l.1-.06h.05l.13-.06h2.1a.15.15 0 010 .08l-.06.05-.12.14h.07l.09-.06.2-.13a.463.463 0 01.16-.07h.08a.301.301 0 01.1-.07v.21h-3.19c-.07.005-.14.005-.21 0h-5.64l-.19-.06h-.95a.148.148 0 01-.07 0h-.51l-.27-.07h-.06a.07.07 0 00-.06 0h-1.68a1.077 1.077 0 01-.19 0h-.12a.378.378 0 01-.18 0h-.15a1.189 1.189 0 01-.22 0h-1.09l-.28.16h-.15l-.18.08h-.06l-.32.11-.29.06h-.29v.07a.21.21 0 000 .11v.08a.07.07 0 000 .05v.09h-1.88a.554.554 0 01-.13 0h-3.25a.996.996 0 01-.25 0h-2.5v.4l.12-.07h.08a.13.13 0 01.07 0h.16a.16.16 0 01-.07.12v.05l-.12.12s-.06 0-.06.08h.1l.09-.05h.06a.06.06 0 01.06 0l.07-.05h.31s0 .05-.06.07v.05h-.15.05a.754.754 0 01.13-.06l.13-.08h.05a.15.15 0 01.07 0h.12l.11-.05h.1a.161.161 0 01.1 0 .1.1 0 010 .06.16.16 0 00-.07.07h-.06a.902.902 0 00-.16.18h.23l.2-.09h.09l.1-.05h.18l-.1.09-.16.14h.17l.08-.05.14-.06.14-.07h.22c.02 0-.06.08-.09.11h-.05v.06l.2-.09.11-.05h.47l-.07.07h-.17.16l.18-.08h2.14v.08h.05a.2.2 0 00.08 0h.34v.13h.53a.546.546 0 010 .11h.49a.09.09 0 010 .06v.05l.17-.1.1-.06h.23a.192.192 0 010 .07l-.06.07-.06.05h.19a.982.982 0 01.2-.06h.07a.14.14 0 010 .07v.05a.44.44 0 01-.14.13v.06l.2-.11.11-.05a.36.36 0 01.22-.06l-.08.08a.459.459 0 01-.07.07v.05c.058-.019.115-.042.17-.07l.22-.09h.18s0 .09-.06.1l-.08.06-.06.06h.31l.16-.09h-.15.05a.35.35 0 01.14-.06l.13-.07v.07l-.05.06-.07.08h.16l.09-.05h.36a.06.06 0 010 .07.43.43 0 00.13 0h.22a.45.45 0 01.11 0h1.26a.585.585 0 01.14 0h.3l.15.07h.17a.731.731 0 10.71-1.28l.06.07c.06.07 0 0 .06 0h.06l.1.07h.32l.18.09.19.08.13.07a.666.666 0 00.15.06h.22l.13.08.09.05h.08l.07.06.12.11.07.06a.249.249 0 010 .07v.11l.06.12v.07a.248.248 0 000 .09v.13a.777.777 0 010 .11v.17a.141.141 0 000 .06v.05l.06.18v.12a.11.11 0 010 .05c.006.04.006.08 0 .12v1.75l-.07.12-.1.05h-.4a.35.35 0 01.11 0 .832.832 0 00.19-.07.463.463 0 01.07-.07h.06l.05-.06a.357.357 0 000-.09h-.16l-.12.06h1.22l-.14.05h-.13a.11.11 0 010-.08l.14-.07.08-.06h.08v-.06h-.61a.15.15 0 010-.09h.11l.16-.09a.323.323 0 01.09 0V28h-.11l-.28.09h-.2v-.06h.1l.18-.16v-.06h-.08a.099.099 0 01-.05 0h-.24a.5.5 0 01-.24 0h.23l.06-.06a.86.86 0 00.85-.62l-.11.06a.549.549 0 00.09-.14.19.19 0 000-.08.593.593 0 000 .08.43.43 0 000 .07v.06l-.1.07-.11.09-.09.06-.13.07h.31l-.06.07a.18.18 0 01-.08.07h-.19c-.01 0 0 0-.08-.07a.934.934 0 00-.15-.13.2.2 0 00-.08-.08h-.2l-.13-.06h-.08l-.12-.06-.05-.06c-.05-.06 0 0 .05 0a.31.31 0 01.11-.09h.05l.06-.05h.05s-.2.08-.3.13h-.32c0 .06-.07 0-.08 0v-.05s.09-.06.12-.1h-.26l-.12-.46h-.23c-.02 0 0 0 0-.07s0 0 .06-.05h.06l.11-.07a.27.27 0 00.08-.07h-.37a.091.091 0 01-.09 0l.1-.08a1.691 1.691 0 00-.24.06h-.37l.07-.06s.07 0 .08-.07h-.45a.25.25 0 000-.08.42.42 0 01.16-.11l.08-.05h-.13.28a1 1 0 00-.16.06h-.25v-.05h.05l.16-.36.1-.07s.06-.06.1-.08l-.12.05-.11.07h-.37v.06l.07.09c.03.058.058.118.08.18v.07a.09.09 0 000 .05l.07.06.09.07.05.05.08.07.07.06c.029.032.063.06.1.08h.12l.07.06h.22a.099.099 0 00.05 0l.09.08v.06h.05a.2.2 0 000 .08v.06c.046.077.086.157.12.24a.16.16 0 000 .09v.05a.09.09 0 010 .06v.28c0 .03 0 .08-.06.11a.532.532 0 000 .11l-.05.05a.65.65 0 00-.12.11.421.421 0 01-.12.08l-.1.09.21-.07a.13.13 0 00.07-.05s.07-.05.1-.09h.14a.28.28 0 010 .1.22.22 0 010 .08v.09h-.21l-.08.06h1.42a.07.07 0 00.05 0l.07-.06h.07v-.07.19c0 .01 0 0-.06.08l-.13.08h-.06.21a.161.161 0 01.1 0h.05a.26.26 0 01.15-.09c.05 0 0 .09 0 .11l-.08.08-.14.07-.14.07h.2s.1-.05.12 0a.1.1 0 000 .05h-.16a.18.18 0 01-.12 0h-.05a.43.43 0 000-.07v-.1l-.06-.07s-.05-.06-.07-.1l-.79 1.29h-.05a.1.1 0 010-.05l-.1-.09h-.06l-.83-.86h-.06l-.08-.07h-.19a.148.148 0 010-.06h.07a.23.23 0 00.07-.07l.06-.05c.04-.043.084-.083.13-.12a1.803 1.803 0 00-.24.12h-.15a.546.546 0 01-.14.09h-.09l-.53-.84c.08-.07.17-.13.24-.2l.05-.06a.27.27 0 00.07-.08h-.06a.09.09 0 01-.06 0h-.23l-.06.06-.05.05h.09l.08.06.08.06a.256.256 0 01.08 0v.08h-.09a.17.17 0 00-.1 0h.08c0 .06.16.05.19.11h.13l.14.08.09.06h.1s.07 0 .09.07h.09a.43.43 0 000 .07v.06a.13.13 0 010 .06v.1h.15c.05 0 0 0 0 .06a.11.11 0 010 .09.15.15 0 010 .07v.05h-.07a.05.05 0 01-.015-.062.05.05 0 01.015-.018v-.07c0-.07 0 .06-.07.08l-.07.07h-.19a.288.288 0 01-.16 0h.36l-.16.08a.148.148 0 01-.07 0h-.51v-.05c0-.05.05 0 .08 0h.17-.57s-.05 0-.05-.05l.09-.06a.602.602 0 00.11-.06c.06 0 .09-.06.14-.08h.06-.71.11l.11-.08a.917.917 0 01-.25.08l-.17.08h-.25v-.05l.12-.08h.18-.21l-.24.09h-.25v-.05h.07a.339.339 0 00.09-.08h-.31a.288.288 0 01-.16 0v-.09l.14-.12h.06a1.24 1.24 0 00.12-.11h-.08l-.17.06-.11.05h.62a.07.07 0 010-.06.14.14 0 01.07-.08h.05a.12.12 0 010-.05l.14-.11-.34.16a1.175 1.175 0 01-.15.09h-.22a.09.09 0 010-.05l.1-.09.1-.07h.25-.16c-.03 0-.08 0-.1-.08h-.4l-.07.06-.08.06h-.05l-.12.07h-.23s.07-.08.11-.1c.04-.02 0 0 .06 0h.05l.07-.06s0-.05.07-.06a.463.463 0 01.07-.07h.05l-.14.08-.12.07h-.2l-.07.06h-.11l-.08.06h-.21a.31.31 0 01-.12.05.08.08 0 010-.09.35.35 0 01.11-.1v-.05l.23-.19.15-.13.06-.07a.271.271 0 00.08-.07v-.05l.09-.09v-.05l.06-.07.08-.09c-.068.036-.131.08-.19.13l-.07.06-.07.06-.08.06-.12.08h-.05l-.08.06h-.06l-.08.08-.27.22h-.12l-.06.06v.05a.13.13 0 01-.06 0 .13.13 0 01-.13 0 .07.07 0 01-.05 0s0-.06.05-.09l.09-.1.27-.25.08-.07.08-.08.09-.09.08-.08h.05l.07-.08a.734.734 0 00.09-.08h.05s.08 0 .07-.1c-.01-.1-.06 0-.08 0l-.23.13h-.11a.19.19 0 01-.11.09h-.06a.3.3 0 01-.08.08l-.09.07-.13.09v.06h-.13V27l.11-.12.07-.08h.08l.08-.09.07-.07a.678.678 0 01.12-.12l.08-.07.14-.12.09-.07a.52.52 0 01.11-.1v-.05l.06-.06a.08.08 0 00-.07 0l-.08.05a.389.389 0 01-.1.08h-.07l-.27.22v.05a.687.687 0 01-.13.11l-.15.13v.05h-.12s-.05.06-.08.08h-.17l.06-.07h.06a.17.17 0 01.06-.06v-.12l.15-.12a.463.463 0 01.07-.07.2.2 0 01-.11.06h-.34l-.09.08-.1.09a1.24 1.24 0 01-.11.12h-.08a.1.1 0 010-.08v-.08c0-.08 0 0 .06 0v-.05c0-.06.1-.1.14-.15l.16-.16a.09.09 0 00-.06 0l-.14.11-.06.05-.09.07-.13.1h-.07l-.08.06-.18.18v.05h-.07s.05 0 .05-.08l.07-.08v-.05a.24.24 0 00.06-.08.12.12 0 01.05-.05v-.06h-.05l-.11.08-1.23 1.02-.11.08a.69.69 0 00-.13.11 1.379 1.379 0 00-.17.17h-.05v.05a.6.6 0 01-.08.08h-.18a.33.33 0 00.06-.1.2.2 0 00.06-.07l.08-.09a.12.12 0 00.05-.05l.06-.07v-.05a.099.099 0 00.05 0 .151.151 0 01.06 0v-.06l.06-.06h.05l.07-.06.09-.08h.05s.05 0 .05-.07l-.21.15-.08.05h-.27a1.13 1.13 0 01-.11.11l-.22.23-.09.08h-.11a.099.099 0 00.05 0 .19.19 0 01.07-.06l.09-.1a.3.3 0 01.08-.08l.19-.19h.05l.07-.07h.12l.13-.11.12-.11h-.65l-.11.08-.08.06h-.06l-.09.07h-.07l-.08.05-.1.09a.292.292 0 00-.09.09c-.06.07-.16.13-.22.2s-.06 0-.07.08l-.06.05-.07.08-.1.09-.11.12h-.06l-.14.12h-.07a.191.191 0 010-.07.1.1 0 010-.07v-.06l.08-.08.09-.08h.06l.07-.06.07-.06a1.328 1.328 0 00-.24.11h-.17v.05a.099.099 0 00-.05 0l-.11.09-.1.09a1.704 1.704 0 00-.19.19l-.07.08a.208.208 0 000 .06h-.44a.792.792 0 00-.16 0h-1.28a.839.839 0 01-.16 0 .405.405 0 01-.11 0h-.17a4.17 4.17 0 01-.5 0v.34h2.36l.71-.05h.88c.133.015.267.015.4 0a.12.12 0 00.08 0h.8v.14l.08.12v.17l.07.11.09.1h.81v.14l.12.07a.589.589 0 00.29.09h.47a.1.1 0 010 .07v.1a.43.43 0 00.1.09l.07.05h.59c.085-.017.169-.04.25-.07v.06a1 1 0 00.09.13l.05.05.08.06.16.07h1.05c.066.05.137.093.21.13l.11.07h2.5v-.06a.655.655 0 000-.14v-.08h.28a.358.358 0 00.19 0H28l.09-.07a.449.449 0 00.1-.09v-.11h1.06c.03.01.06.01.09 0h.26a.86.86 0 00.18-.14v-.05a.329.329 0 00.06-.1 1 1 0 00.06-.16v-.06a.45.45 0 01.11 0h.12l.11-.09a.535.535 0 00.12-.09l.05-.07.17-.05h.3a.321.321 0 01.14 0h1.22l.72.05h.82l1.25.08h2.24l1.9.14-.03-.41zm-16.4-6h.44v.11h-.16a.298.298 0 01-.14 0 .07.07 0 01-.06 0h-.05.08m2.7 6.58a.16.16 0 01.09 0l.06.06a.14.14 0 010 .07.22.22 0 01-.08 0h-.11a.84.84 0 01-.14.06h.13l-.1.07h-.27a.12.12 0 010-.09h.05v-.08h.11m-.48.85h.09-.15m-.24-2.58h.16a.1.1 0 01.07 0v.05s0 .07-.06.1h-.05s-.06 0-.08.06l-.17.1h-.16l.21-.17m-1 .45l.07-.07.15-.13c.052-.049.11-.092.17-.13h.07a.19.19 0 01.12 0v.07l-.12.1h-.12l-.1.09-.12.07h-.05l-.09.06s-.06.05-.1 0c-.04-.05 0 0 0-.05m0 .28h.12v.09h-.09m-1.47.15s.08-.06.11-.09h.54l.73-.62a.564.564 0 010 .08s0 .08.07.11c.005.03.005.06 0 .09a.172.172 0 010 .07.28.28 0 01-.06.09s0 .06-.06.05v-.2a.468.468 0 00-.07-.07c-.06 0-.12-.12-.18-.18l-.07-.07h-.08a.48.48 0 00-.22 0h-.1s-.09.06-.13 0m1.26 1h.05a.091.091 0 01.07 0h.07v.05a.16.16 0 01-.07.07h-.33m-1.15-.54l.06-.09.12-.05h.35a.16.16 0 01.08.06v.07a.148.148 0 000 .06.15.15 0 010 .07h-.52l.05.33-.14-.11a.12.12 0 010-.09.697.697 0 010-.14.19.19 0 01.05-.11m-1.11.64a.416.416 0 01-.12 0 .32.32 0 01-.13 0h-.08v-.15h.27a.159.159 0 010 .07m.51-.58l-.13.08h-.13s0 .08.08.09c.08.01 0 0-.06 0a.168.168 0 00-.15.3h-.29l.1-.06h.14l.09-.06a.1.1 0 00-.07 0h-.51a.09.09 0 010-.05h.11a.332.332 0 01.1-.06h-.36c-.03 0 0 0 0-.07a.461.461 0 01.18-.11h.7l.11.07h.05v.17c.004.02.004.04 0 .06v.08l-.06.06m1.35 1h-.31a.75.75 0 01-.16 0h-.08a.17.17 0 01-.14 0h-.12s0-.05-.06-.07a.502.502 0 000-.12v-.06h.06a.09.09 0 00.06 0h.05v.07l-.07.07h.24l.09-.05h.15a.13.13 0 010 .09h-.05a.18.18 0 01-.07 0h.36s.05-.05.1-.05l.15-.07a.11.11 0 01.08 0l-.06.06-.07.07a.347.347 0 01-.12.07h.07a.476.476 0 01.14 0l.19-.09h.05s0 .08-.06.11c0 0 0 .05-.06.06-.06.01 0 0-.06 0m1.36-.12l-.06.06-.1.12c-.049.044-.096.09-.14.14l-.09.08a.817.817 0 00-.15 0h-.39v-.06a.22.22 0 010-.13.228.228 0 010-.07.14.14 0 010 .07l.05.06h.39c.073.005.147.005.22 0h.07c.03.006.06.006.09 0h.05l.11-.09h-.12l-.15.06h-.15a.521.521 0 01-.17 0h.13a.091.091 0 00.07 0h.11-.07.12a.228.228 0 01.1 0l-.22-.54H24l-.25.07a.82.82 0 01-.26.06h-.24v-.06h.66l.18-.09c.03.005.06.005.09 0h-.09l-.16.05h-.73.08l.11-.05h1.31v-.12a.15.15 0 000-.07c0-.09-.11-.13-.17-.21h-.1a.15.15 0 00-.08 0h-.37v.06c0 .05-.07.1-.1.16-.02.052-.043.102-.07.15a.458.458 0 00-.05.1.13.13 0 000 .06h-.24c-.03 0 0 0 0-.06a.2.2 0 010-.08v-.06l.08-.09.07-.05.06-.07h.2a.22.22 0 00.08 0 .57.57 0 01.27 0s.05 0 .07.07v.24a.46.46 0 01-.07.16.16.16 0 00-.05.09.3.3 0 010 .06v.07l-.08.1a.06.06 0 000 .05l-.06.06-.08.09v.07m.47-1.34a.192.192 0 000 .07h-.07l-.19.07h-.11.29l-.07.08s0 .05-.06.05h-.31l.23-.39v-.07a.09.09 0 010-.05v-.27a.795.795 0 010-.09c0-.06.06-.08.11-.1a.412.412 0 01.19 0h.09l.06.06m.77 1.72v.19h-.18l.02.61h-.13.54v.06h-.88.31a.32.32 0 00.17-.06l.1-.07h.06-.55a.43.43 0 01-.22 0h.06c.043.01.087.01.13 0H25l.14-.05h.07c-.094.01-.188.027-.28.05h-.49l.05-.05h.06a.732.732 0 01.25-.08h.07a.758.758 0 00.21-.08l.09-.08.18-.17a.111.111 0 000-.06v-.06a.39.39 0 00.06-.11v-.12a.111.111 0 000-.06c-.05-.06-.13-.12-.18-.18a.14.14 0 01-.08 0 .07.07 0 010-.05l.05-.08h.14c.051.027.098.06.14.1l.06.05a.117.117 0 00.05 0v.07a.43.43 0 000 .07v.06a.17.17 0 010 .1v.15a.2.2 0 000 .08v.05l-.05.07a.357.357 0 000 .09m1.69.47a.168.168 0 000 .05l.02-.06h-.14a.485.485 0 01-.17 0h-.26l-.43-.1a.422.422 0 01.07-.13v-.24a.262.262 0 000-.09l-.07-.54a1.86 1.86 0 01.35 0s.08 0 .11.07a.17.17 0 00-.06.08.09.09 0 00-.06 0l-.1.06-.07.05h-.1.08l.09-.06.12-.08h.23c.06 0 0 .08 0 .11 0 0-.05 0-.06.06h-.06l-.1.06h-.18.14l.09-.06.08-.05h.11s0-.06.09-.07c.09-.01.05-.07.1-.05a.06.06 0 010 .06v.07a.16.16 0 000 .08s-.06 0-.09.07l-.06.06h.21l.14.04s.09-.1.11 0l-.07.08a.498.498 0 01-.08.07l-.07.08.11-.05h.06a.193.193 0 01.08 0v-.05s.06-.06.09 0a.12.12 0 010 .13m1.23-.76l-.06.05-.06.05-.1.06h-.53l-.1-.05h-.06l-.23-.15a.68.68 0 00-.12-.06l-.1-.08s-.07-.07-.11-.09l.08-.05h.12a.12.12 0 01.07 0h.06v.07c-.04.01-.08.01-.12 0h.43l.1-.05h.29a.099.099 0 00.05 0v.13a.14.14 0 010 .06h-.05s-.05 0-.06.06h-.06l-.1.07h-.23a.07.07 0 00.07 0h.48s0-.06.09-.06 0-.05 0-.06c0-.01 0 0 .07 0 0 0-.05.05-.06.09a.338.338 0 00-.09.08l-.07.06h-.26.25s.06 0 .07-.05h.08l.07-.06s.08-.08.1 0l-.06.09a.503.503 0 00-.08.07l-.08.08.12-.05h.11v-.05h.06c.06 0 .06.06 0 .11m2.1-1.51v.06h-.4.19a.091.091 0 01.07 0c.046-.034.09-.07.13-.11l.09-.08a.13.13 0 00.06 0" fill="#002F6C"/><path fill-rule="evenodd" clip-rule="evenodd" d="M39.14 28.38h-.06a.26.26 0 00-.1.07h-.06v.06h.14a.09.09 0 00.07 0c.042-.029.085-.056.13-.08l-.12-.05zm0-.53a.442.442 0 01-.11.09l-.26.2-.3.21h-.07l-.15.18-.07.06-.06.07-.05.05a.09.09 0 00-.06.06h.16a.79.79 0 00.23-.09.36.36 0 01.11-.1l.06-.07h.06v-.05c.068-.055.132-.115.19-.18a.757.757 0 01.09-.09l.23-.34z" fill="#002F6C"/><path d="M139.38 35.18h-6.89l-2.11-5.08h-11.49l-1.92 5.08h-6.78l10.36-25.65h7.42l11.41 25.65zm-15-19.55l-3.76 10h7.91l-4.15-10zm24.23-6.13h-6.4v25.69h6.4V9.5zm16.84.03c9.38 0 14.2 5.84 14.2 12.89 0 7.38-4.67 12.8-14.92 12.8h-10.62V9.53h11.34zm-4.94 21h4.19c6.44 0 8.36-4.37 8.36-8.13 0-4.41-2.37-8.14-8.44-8.14h-4.11v16.27zM14.64 38.74a4.3 4.3 0 002 3v-3h-2zm3.12 0h2.81v4.55a13.533 13.533 0 01-2.81-1v-3.55zm3.88 0v4.79s1 .18 1.16.19a7.113 7.113 0 011.65.37v-5.35h-2.81zm17.54 0a4.3 4.3 0 01-2.05 3v-3h2.05zm-3.12 0h-2.81v4.55c.97-.229 1.913-.564 2.81-1v-3.55zm-3.81 0v4.79s-1 .18-1.16.19a7.115 7.115 0 00-1.65.37v-5.35h2.81zm-5.32 7.11a3.68 3.68 0 00-1.36-1.32v-5.8h2.73v5.8a3.66 3.66 0 00-1.37 1.31" fill="#BA0C2F"/><path d="M17.11 35.94h.96v.01l-.77.57.3.91-.01.01-.76-.57-.76.57-.01-.01.31-.91-.78-.57v-.01h.95l.29-.9h.01l.27.9zm3.39 0h.95v.01l-.77.57.3.91v.01l-.77-.57-.76.57v-.01l.3-.91-.78-.57v-.01h.95l.29-.9h.01l.28.9zm3.38 0h.96v.01l-.77.57.29.91v.01l-.76-.57-.77.57v-.01l.3-.91-.78-.57v-.01h.96l.28-.9h.01l.28.9zm3.38 0h.96v.01l-.77.57.3.91-.01.01-.76-.57-.76.57-.01-.01.3-.91-.78-.57v-.01h.96l.29-.9.28.9zm3.38 0h.96v.01l-.77.57.3.91-.01.01-.76-.57-.76.57-.01-.01.3-.91-.78-.57v-.01h.96l.29-.9.28.9zm3.38 0h.96v.01l-.77.57.3.91-.01.01-.76-.57-.76.57-.01-.01.3-.91-.77-.57v-.01h.95l.29-.9.28.9zm3.39 0h.96v.01l-.78.57.3.91v.01l-.77-.57-.76.57-.01-.01.31-.91-.78-.57v-.01h.95l.29-.9h.01l.28.9zM21.34 13.59v2.29c0 1.34-.91 1.8-2 1.8-1.09 0-2-.54-2-1.79v-2.3h1v2.32a.91.91 0 001 .93.93.93 0 001-1v-2.25h1zm3.58 1.05a3.133 3.133 0 00-1.28-.36c-.36 0-.59.13-.59.33 0 .61 2.05.44 2.05 1.85 0 .77-.65 1.22-1.55 1.22a2.69 2.69 0 01-1.45-.39v-.87c.39.32.875.504 1.38.52.38 0 .59-.13.59-.37 0-.66-2-.42-2-1.87 0-.7.6-1.16 1.53-1.16.473.009.94.114 1.37.31l-.05.79zm5.02 2.99h-1.08l-.33-.8h-1.81l-.3.8h-1.07l1.63-4h1.17l1.79 4zm-2.36-3.1l-.59 1.57h1.26l-.67-1.57zm3.87-.93h-1.01v4.04h1.01V13.6zm2.71-.01a2 2 0 012.23 2c0 1.16-.74 2-2.35 2h-1.67v-4h1.79zm-.78 3.3h.66a1.28 1.28 0 000-2.56h-.65l-.01 2.56z" fill="#fff"/></svg>