<svg width="94" height="82" viewBox="0 0 713 624" fill="none" xmlns="http://www.w3.org/2000/svg"><path d="M393.56 553.11c-2.5 0-5-.63-7.51-.63a269.61 269.61 0 0013.77 65.7c1.25 3.13 1.87 5 1.87 5s.63-1.88 1.88-5c3.75-10 11.26-35 13.76-65.7a120.963 120.963 0 01-15.64 1.26 35.416 35.416 0 01-8.13-.63z" fill="#747274"/><path d="M200.22 377.29v-.62c0-1.25.63-1.88 1.88-2.51h.63c1.24 0 1.87.63 2.5 1.88 24.4 80.09 102.61 130.15 190.83 130.15a242.475 242.475 0 0066.33-9.39h.61c1.25 0 1.88.62 2.51 1.88l6.88 21.89v.63c0 .63 0 .63-.63 1.25s-.62 1.25-1.25 1.25c-20.65 5.64-41.3 8.76-61.32 8.76-93.85-.62-180.2-61.31-209-155.17" fill="#BE2226"/><path d="M481.78 268.42H555c25.65 0 31.91 13.14 31.91 30V306c0 13.14-5.63 28.16-24.4 28.16h-53.2V356h-27.53v-87.58zm26.91 43.8h41.92c6.25 0 8.76-4.38 8.76-9.39v-3.12c0-5.63-3.13-9.39-11.26-9.39h-39.42v21.9zm-114.5-43.8h35L477.4 356h-30l-8.14-15.64H384.8L376.67 356h-30l47.52-87.58zm.62 53.19h34.41l-17.51-33.16-16.9 33.16zm-196.47-53.19h41.3l30.66 56.32 30.03-56.32h41.3v87.6h-26.28v-63.2l-35.04 63.2h-20.02l-35.67-63.2v63.2h-26.28v-87.6z" fill="#747274"/><path d="M41.92 268.42h41.3l30.03 56.32 30.66-56.32h41.29v87.6h-26.27v-63.2l-35.67 63.2h-20.02l-35.04-63.2h-.62v63.2H41.92v-87.6z" fill="#747273"/><path d="M0 356h26.91v-57.54H0V356zm0-66.95h26.91V267.8H0v21.25zm643.21 30.68a31.775 31.775 0 01-1.25 7.51 270.25 270.25 0 0065.7-13.77c3.12-1.25 5-1.88 5-1.88s-1.88-.62-5-1.87c-10-3.13-35-11.26-65.7-13.77a122.932 122.932 0 011.25 15.64 17.71 17.71 0 010 8.14z" fill="#747274"/><path d="M619.44 247.15c-.63-.63-1.26-.63-1.26-1.25-24.4-80.09-102.61-130.15-190.83-130.15a242.382 242.382 0 00-66.35 9.39h-.63c-1.25 0-1.88-.63-2.5-1.88l-6.87-21.9v-1.87c.63-.63.63-1.26 1.25-1.26a207.884 207.884 0 0161.32-8.76c93.23 0 180.2 60.7 209 154.55v1.88a1.338 1.338 0 01-1.25 1.25h-.62c-.63.62-1.25.62-1.25 0" fill="#BE2226"/><path d="M409.83 69.45c2.5 0 5 .63 7.51.63a270.197 270.197 0 00-13.77-65.7A37.652 37.652 0 01401.69 0s-.62 1.88-1.87 5c-3.13 10-11.26 35-13.77 65.7a122.987 122.987 0 0115.64-1.25h8.14z" fill="#747274"/></svg>